<svg version="1.2" xmlns="http://www.w3.org/2000/svg" viewBox="0 0 700 700" width="700" height="700">
	<title>noun-copy-4798446-svg</title>
	<style>
		.s0 { fill: #ffffff } 
	</style>
	<path id="Layer" fill-rule="evenodd" class="s0" d="m167.9 267h221.3c33 0 59.9 26.9 59.9 59.9v221.3c0 33-26.9 59.9-59.9 59.9h-221.3c-33 0-59.9-26.9-59.9-59.9v-221.3c0-33 26.9-59.9 59.9-59.9zm142.9-175.1h221.3c33 0 59.9 26.9 59.9 59.9v221.4c0 32.9-26.9 59.8-59.9 59.8h-57.8v-106.2c0-46.7-38.3-85-85-85h-138.4v-90c0-33 26.9-59.9 59.9-59.9z"/>
</svg>