<svg version="1.2" xmlns="http://www.w3.org/2000/svg" viewBox="0 0 700 700" width="700" height="700"><style>.a{fill:#fff}</style><path class="a" d="m536.7 513.3c0 12.9-10.5 23.4-23.4 23.4h-326.6c-12.9 0-23.4-10.5-23.4-23.4v-326.6c0-12.9 10.5-23.4 23.4-23.4h163.3c12.9 0 23.3-10.4 23.3-23.3 0-12.9-10.4-23.3-23.3-23.3h-163.3c-38.7 0-70 31.3-70 70v326.6c0 38.7 31.3 70 70 70h326.6c38.7 0 70-31.3 70-70v-163.3c0-12.9-10.4-23.3-23.3-23.3-12.9 0-23.3 10.4-23.3 23.3z"/><path class="a" d="m503.5 123.5c-9.2-9.1-23.9-9.1-33 0l-194.8 194.8c-3.6 3.6-5.9 8.2-6.6 13.2l-12.2 85.2c-1 7.3 1.4 14.6 6.6 19.8 5.2 5.2 12.5 7.6 19.8 6.6l85.2-12.2c5-0.7 9.7-3 13.2-6.6l194.8-194.8c4.4-4.3 6.8-10.3 6.8-16.5 0-6.1-2.4-12.1-6.8-16.5z"/></svg>